<svg xmlns="http://www.w3.org/2000/svg" width="22" height="32" viewBox="0 0 22 32">
  <g id="icon" transform="translate(-76)">
    <g id="Group_262" data-name="Group 262" transform="translate(76)">
      <g id="Group_261" data-name="Group 261">
        <path id="Path_1440" data-name="Path 1440" d="M87,0A11.14,11.14,0,0,0,76,11.25a11.417,11.417,0,0,0,1.642,5.916l8.732,14.391a.912.912,0,0,0,.779.443h.007a.913.913,0,0,0,.779-.456l8.509-14.531A11.431,11.431,0,0,0,98,11.25,11.14,11.14,0,0,0,87,0Zm7.875,16.051-7.736,13.21L79.2,16.178a9.522,9.522,0,0,1-1.379-4.928,9.178,9.178,0,1,1,18.352,0A9.528,9.528,0,0,1,94.875,16.051Z" transform="translate(-76)" fill="#015ba7"/>
      </g>
    </g>
    <g id="Group_264" data-name="Group 264" transform="translate(81.5 5.625)">
      <g id="Group_263" data-name="Group 263">
        <path id="Path_1441" data-name="Path 1441" d="M171.5,90a5.626,5.626,0,1,0,5.5,5.625A5.57,5.57,0,0,0,171.5,90Zm0,9.387a3.764,3.764,0,1,1,3.673-3.762A3.724,3.724,0,0,1,171.5,99.387Z" transform="translate(-166 -90)" fill="#f27f77"/>
      </g>
    </g>
  </g>
</svg>
